<svg width="350" height="427" viewBox="0 0 350 427" fill="none" xmlns="http://www.w3.org/2000/svg">
<path fill-rule="evenodd" clip-rule="evenodd" d="M8.56165 252.207C13.5515 252.696 18.5414 253.185 23.5313 253.675C47.4293 255.499 71.3178 259.31 95.0329 261.597C95.6233 260.637 96.7791 260.795 97.4808 261.463C99.8472 261.256 102.499 259.448 104.643 261.328C104.713 261.318 104.782 261.307 104.852 261.3C108.669 253.979 111.307 246.171 113.868 238.352C115.502 233.545 117.701 228.891 121.764 225.663C128.699 220.853 144.587 211.098 152.73 211.508C152.865 210.051 153.545 208.549 154.66 207.579C152.201 203.388 162.035 200.654 162.729 201.14C162.284 187.14 168.874 174.982 183.403 172.194C196.421 169.483 214.935 169.028 221.936 182.623C222.706 182.536 230.572 182.495 231.333 182.581C232.517 181.083 245.512 195.276 240.186 200.218C287.806 221.27 314.883 218.758 328.063 277.942C329.845 283.502 329.975 289.586 331.856 295.022C338.551 310.643 343.98 327.278 345.331 344.276C348.595 345.111 348.97 350.862 345.19 351.694C343.746 352.012 342.539 352.447 341.486 353.27C342.309 367.2 338.938 399.02 336.814 398.922C332.483 412.697 313.165 416.584 299.488 411.744C301.846 416.176 299.488 418.964 299.488 421.332C250.277 423.193 196.469 422.121 147.271 424.673C140.978 424.584 134.359 426.218 128.152 425.277C124.366 424.37 124.36 418.422 128.199 417.686L111.422 414.044C111.797 413.903 104.506 409.056 98.9952 400C93.8661 389.868 97.3569 377.639 95.0329 366.619C76.881 365.135 58.4291 364.501 40.476 361.429C38.0281 368.748 27.4316 359.994 24.0634 356.473C24.0676 356.467 24.0717 356.462 24.076 356.456C22.4459 356.011 21.1387 354.484 21.095 352.676C19.9518 351.044 19.7119 348.743 20.8081 347.166C15.7836 318.191 8.12372 288.606 5.35504 259.359C4.37631 259.142 3.45459 258.713 2.67313 258.053L2.73645 257.989C1.41245 256.514 1.15497 253.968 3.36221 252.715C5.1427 251.703 6.62936 252.017 8.56165 252.207Z" fill="white"/>
<path fill-rule="evenodd" clip-rule="evenodd" d="M0 252.863C17.2956 253.382 34.571 254.505 51.7844 256.264C67.7929 257.899 83.7427 260.077 99.6027 262.791C102.915 263.358 106.224 263.948 109.528 264.561L111.51 264.932C114.815 265.555 118.853 265.813 121.795 267.569C124.898 269.421 125.736 273.292 126.768 276.484C127.982 280.237 129.164 284.002 130.315 287.775C134.885 302.758 139.06 317.871 142.784 333.083C144.632 340.634 146.272 348.228 148.001 355.806C149.536 362.539 151.23 369.197 153 375.863C152.782 375.694 152.514 375.566 152.191 375.497C143.402 373.637 134.431 372.828 125.511 371.8L124.647 371.7C115.419 370.62 106.192 369.548 96.9581 368.515L35.8255 361.675C32.2201 361.271 28.3577 361.217 24.849 360.254C18.8837 358.617 17.4854 351.981 16.4846 346.696L16.4544 346.536C13.4369 330.569 11.0348 314.463 8.22066 298.455" fill="#2D74FF" fill-opacity="0.5"/>
<path fill-rule="evenodd" clip-rule="evenodd" d="M221.029 179.465C219.546 175.741 214.534 177.189 215.093 181.101C215.427 183.444 216.712 185.919 217.865 187.973C218.804 189.645 219.876 191.277 221.329 192.53C218.743 194.941 216.058 197.264 213.306 199.47C210.303 201.876 207.145 204.094 203.881 206.133C201.019 207.921 198.027 209.505 195.329 211.546C192.82 213.442 190.535 215.724 189.372 218.702C188.133 221.873 188.671 225.148 189.584 228.317L189.689 228.675C190.621 231.815 192.234 235.599 189.997 238.557C188.858 240.063 187.202 241.13 185.773 242.333C184.502 243.403 183.309 244.567 182.216 245.817C179.831 248.542 177.891 251.608 176.667 255.024L176.557 255.334C175.508 258.358 174.741 262.063 176.159 265.032C176.566 265.883 177.878 265.607 178.105 264.778C178.62 262.9 178.594 260.934 179.026 259.03C179.475 257.05 180.223 255.171 181.199 253.392C183.089 249.952 185.648 247.013 188.672 244.529L189.577 243.793C191.936 241.859 194.103 239.806 194.582 236.605C195.094 233.179 193.721 229.916 192.838 226.673C192.223 224.414 192.022 222.248 192.687 220.206C193.499 221.531 194.608 222.789 195.484 223.911C197.231 226.147 198.993 228.369 200.751 230.595C202.554 232.877 204.312 235.196 205.986 237.574C206.735 238.639 207.476 239.709 208.214 240.78C208.769 241.586 209.544 242.39 210.149 243.212C210.002 243.651 210.013 244.157 210.28 244.517C213.489 248.851 218.056 239.808 219.247 237.523C221.672 232.871 223.477 227.928 225.91 223.276C228.431 218.454 231.302 213.76 234.502 209.357C236.438 206.695 238.607 204.193 240.378 201.446C244.549 205.226 250.038 207.76 255.08 210.058C260.619 212.582 266.374 214.645 272.054 216.835L273.732 217.486C283.518 221.303 293.543 225.496 301.678 232.276C311.236 240.243 316.891 251.347 321.1 262.846C325.947 276.084 329.956 289.679 333.693 303.265C335.606 310.216 337.42 317.199 339.126 324.205C340.63 330.376 341.876 336.609 343.616 342.717C340.087 342.593 336.061 343.958 333.048 344.352C319.315 346.149 305.767 349.013 292.802 353.971C291.2 354.583 290.737 356.182 291.085 357.477C290.162 357.217 289.239 356.953 288.315 356.694C289.327 355.144 288.844 352.374 288.765 350.657L288.76 350.538C288.678 348.25 288.43 345.959 288.269 343.675C287.962 339.32 287.562 334.997 287.031 330.668L286.896 329.585C286.294 324.875 285.849 320.137 285.193 315.434L285.115 314.896C285.43 313.693 285.797 312.505 286.181 311.321C287.207 308.169 288.654 305.203 289.922 302.15C290.071 301.791 289.559 301.584 289.32 301.8C287.172 303.731 285.466 306.18 284.095 308.742C284.072 308.621 284.051 308.5 284.026 308.379L283.87 307.61C283.484 305.734 283.015 303.76 281.863 302.238C281.741 302.077 281.498 302.043 281.382 302.238C280.28 304.102 280.156 306.463 279.987 308.584C279.795 310.983 279.771 313.413 279.805 315.818C279.871 320.52 280.203 325.235 280.467 329.929C280.726 334.542 281.235 339.096 281.891 343.664L282.016 344.52C282.336 346.694 282.599 348.895 283.022 351.054L283.141 351.642C283.367 352.713 283.506 354.223 283.956 355.477C272.376 352.249 260.779 349.094 249.159 345.996C240.761 343.756 232.354 341.549 223.95 339.329C223.507 338.53 222.954 337.784 222.265 337.117C219.995 334.92 216.986 333.94 214.227 335.631C214.002 335.769 213.983 336.12 214.227 336.253C214.755 336.542 215.285 336.838 215.805 337.147L210.759 335.781C206.988 334.76 203.171 333.483 199.311 332.771C192.201 329.265 184.553 326.726 177.063 324.218L176.181 323.919C172.346 322.613 168.379 321.15 164.417 320.425C161.516 319.895 158.111 320.535 156.944 323.505C155.468 324.478 154.078 325.621 152.737 326.745C151.768 327.557 150.839 328.421 149.894 329.262L149.72 329.415C148.947 330.084 148.335 330.533 148.146 331.599C148.048 332.15 148.398 332.894 149.078 332.822C151.157 332.599 152.848 330.19 154.258 328.752C155.348 327.64 156.446 326.49 157.441 325.268C158.021 325.583 158.815 325.527 159.184 324.828C161.098 321.207 166.34 323.716 169.24 324.575L173.395 325.804C175.473 326.419 177.549 327.038 179.622 327.667C185.319 329.396 190.989 331.331 196.738 332.919C196.224 333.484 196.294 334.489 197.272 334.872C201.772 336.637 206.709 337.549 211.384 338.76C214.336 339.525 217.286 340.295 220.235 341.069C220.74 341.888 221.104 342.814 221.257 343.892C221.82 347.856 220.735 352.429 219.677 356.263L219.518 356.835C218.649 359.918 217.37 363.696 214.709 365.643C214.06 366.117 213.233 366.448 212.399 366.522C207.19 363.843 201.981 361.164 196.769 358.489C195.803 357.994 194.911 358.664 194.694 359.462C192.857 359.161 191.023 358.686 189.353 358.119C186.547 357.167 184.356 355.351 181.725 354.094C176.635 351.664 171.437 354.649 166.88 356.919L165.83 357.434C163.786 358.425 159.534 360.329 158.554 357.619C157.605 354.997 160.604 352.195 162.54 351.014C164.849 349.607 167.537 348.854 170.146 348.227C171.635 347.869 173.143 347.577 174.66 347.363C176.381 347.121 178.158 347.158 179.815 346.6C180.638 346.323 180.765 345.016 179.815 344.801C177.265 344.221 174.221 344.853 171.559 345.5L170.168 345.842C167.487 346.5 164.78 347.325 162.338 348.637C160.562 349.591 158.687 351.04 157.463 352.814C156.4 351.827 155.076 351.861 153.698 352.227L152.949 352.435C151.714 352.777 150.712 353.012 149.51 352.775C149.349 351.901 149.186 351.027 149.012 350.152C147.299 341.556 145.42 332.993 143.346 324.476C139.77 309.784 135.632 295.254 130.967 280.873L130.499 279.435C129.423 276.145 128.557 272.562 126.822 269.54C125.181 266.682 122.553 265.036 119.43 264.165C115.886 263.176 112.162 262.658 108.546 261.99C107.74 261.841 106.931 261.7 106.124 261.553C106.806 260.323 107.315 258.925 107.774 257.853L107.854 257.667C108.84 255.422 109.725 253.137 110.58 250.839L111.219 249.111C112.762 244.952 114.355 240.86 116.525 236.97C118.809 232.875 121.839 229.528 125.616 226.758C133.318 221.108 142.6 218.227 150.069 212.19C150.375 211.942 149.983 211.52 149.672 211.676C144.629 214.209 139.184 215.931 133.938 217.993L132.903 218.401C128.757 220.043 124.546 221.832 120.957 224.491C116.956 227.457 113.805 231.14 111.436 235.52C109.102 239.837 107.609 244.669 105.962 249.28L105.521 250.509C104.857 252.352 104.171 254.188 103.385 255.981C102.76 257.405 101.596 259.03 101.066 260.656C99.6179 260.405 98.1698 260.153 96.72 259.911C65.3162 254.671 33.5616 251.592 1.73645 250.692C0.491364 250.656 -0.152649 251.844 0.0308228 252.929C3.08496 270.978 5.79913 289.088 8.7771 307.151C10.0771 315.034 11.4029 322.911 12.7598 330.785C13.4471 334.774 14.2418 338.747 14.8928 342.742C15.4184 345.968 15.8 349.22 16.7022 352.371C17.5115 355.197 18.7535 357.922 20.7932 360.077C22.9919 362.401 26.0608 363.526 29.1499 364.058C36.9918 365.406 45.0354 365.957 52.9409 366.856L95.0307 371.641C94.4157 377.228 94.3697 382.729 94.6519 388.381L94.8127 391.467C94.9442 393.949 95.1014 396.434 95.4581 398.891C95.9054 401.972 97.3158 404.581 99.3932 406.882C101.301 408.996 103.618 410.799 105.873 412.527C108.213 414.322 110.63 416.054 113.382 417.163L113.739 417.305C116.152 418.246 120.68 419.705 123.979 419.172C123.548 421.331 122.713 423.653 123.453 425.789C123.796 426.782 125.094 427.277 125.89 426.432C127.465 424.759 127.588 422.549 127.962 420.367C128.35 418.095 128.685 415.816 128.982 413.531C129.557 409.113 130.005 404.654 130.141 400.198C130.282 395.623 130.228 391.041 129.981 386.47C129.854 384.123 129.697 381.777 129.399 379.445C129.272 378.45 129.142 377.455 128.993 376.463C128.939 376.101 128.879 375.741 128.814 375.382L132.592 375.807C138.385 376.454 144.18 377.037 150.014 377.128C150.705 377.139 151.236 376.824 151.583 376.366C151.954 376.969 152.598 377.4 153.521 377.396C161.667 377.366 169.254 374.704 176.664 371.566C180.398 369.984 184.075 368.271 187.816 366.703C191.307 365.239 195.04 364.195 198.447 362.545L207.4 367.238C207.465 367.469 207.549 367.688 207.639 367.87C208.222 369.059 209.371 369.704 210.545 370.19C211.672 370.657 212.838 370.803 213.975 370.685C220.765 374.241 227.556 377.793 234.352 381.337L241.15 384.879C254.693 391.926 268.183 399.089 281.811 405.97L282.814 406.475C287.522 408.834 292.576 411.225 297.8 413.009C297.893 414.331 297.835 415.616 297.724 417.015L297.697 417.319C297.541 418.972 297.207 421.043 298.534 422.22C299.224 422.832 300.457 422.834 300.927 421.912C301.778 420.238 301.014 417.601 300.744 415.783C300.648 415.136 300.531 414.472 300.359 413.827C306.348 415.609 312.518 416.473 318.612 415.472C324.546 414.499 329.141 410.763 332.846 406.194C336.756 401.372 339.534 395.753 341.025 389.729C342.722 382.874 342.833 375.795 342.793 368.774C342.75 361.297 342.474 353.783 341.564 346.357C342.561 346.122 343.666 345.92 344.674 345.99C345.173 346.788 346.141 347.124 347.015 347.02C348.917 349.116 344.093 351.259 342.551 351.795C342.016 351.982 342.073 352.851 342.691 352.825L343.08 352.806C345.462 352.679 347.923 352.273 349.324 350.06C350.446 348.287 350.109 346.186 348.771 344.74C347.887 336.389 345.775 328.257 343.808 320.111C341.879 312.115 339.733 304.171 337.458 296.267L336.438 292.729C332.857 280.335 329.114 267.841 324.174 255.94C321.707 249.997 318.865 244.164 315.013 238.983C311.423 234.152 307.184 230.019 302.311 226.489C293.227 219.908 282.568 215.931 272.095 212.142L271.626 211.972C266.199 210.01 260.785 208.025 255.42 205.899C250.675 204.019 246.129 201.636 241.406 199.728C241.559 199.449 241.708 199.168 241.85 198.883L241.937 198.957C241.952 198.968 241.968 198.98 241.984 198.991C242.459 199.32 243.158 199.158 243.549 198.789C244.654 197.747 244.28 196.59 243.542 195.509L243.446 195.372C242.544 194.108 241.739 192.773 240.907 191.464L240.385 190.646C238.987 188.459 237.518 186.257 235.655 184.45C234.792 183.613 233.847 182.986 232.846 182.519C232.931 182.338 232.181 181.968 231.968 182.155C228.796 180.994 225.147 181.238 221.688 181.557M97.0673 371.873L101.477 372.374C106.329 372.925 111.183 373.459 116.037 373.987L126.581 375.132C126.607 375.733 126.68 376.32 126.694 376.774C126.763 379.113 126.814 381.453 126.863 383.792C126.96 388.482 126.853 393.176 126.544 397.856C126.245 402.391 125.85 406.927 125.238 411.432L125.112 412.332L125.039 412.806C124.539 412.854 124.048 413.092 123.64 413.579C122.748 414.644 119.519 413.609 118.257 413.161C116.183 412.423 114.23 411.177 112.428 409.927C110.668 408.707 109.084 407.285 107.561 405.786L106.315 404.554C105.076 403.324 103.835 402.012 103.075 400.464C102.046 398.364 101.912 395.787 101.61 393.5C101.239 390.687 100.796 387.875 100.328 385.076M225.089 342.348L225.547 342.468C242.163 346.88 258.755 351.423 275.422 355.641C283.671 357.729 291.958 359.664 300.217 361.712L301.554 362.046C308.069 363.692 314.662 365.672 319.651 370.395C319.835 370.569 320.103 370.302 319.929 370.117C314.552 364.396 306.905 361.975 299.563 359.876C298.205 359.488 296.846 359.109 295.489 358.723C305.474 355.165 315.618 352.07 325.995 349.862C328.668 349.294 331.371 348.877 334.041 348.306C335.903 347.908 337.722 347.332 339.564 346.855L341.014 346.49L341.033 351.068C341.057 357.551 341.045 364.03 340.714 370.512L340.652 371.713C340.266 378.927 339.663 386.291 337.101 393.094C335.02 398.621 331.702 403.829 327.362 407.855C325.167 409.892 322.806 411.478 319.888 412.261C317.179 412.988 314.341 413.073 311.556 412.879C298.197 411.948 286.305 404.695 274.7 398.69C255.72 388.869 236.737 379.052 217.736 369.269C218.25 368.918 218.734 368.513 219.174 368.059C221.722 365.429 223.065 361.829 223.948 358.343C224.888 354.632 225.45 350.654 225.515 346.823M200.913 373.06C200.745 372.97 200.551 373.083 200.543 373.272C200.484 374.722 201.286 376.152 201.886 377.459L201.949 377.598C202.677 379.217 203.474 380.814 204.298 382.385C205.946 385.525 207.658 388.631 209.445 391.694C213.039 397.855 217.032 403.756 221.753 409.12C222.819 410.332 224.572 408.778 223.888 407.474C220.589 401.184 216.744 395.245 212.785 389.358C210.804 386.411 208.823 383.46 206.822 380.526C205.987 379.302 205.142 378.082 204.273 376.88L203.749 376.162M3.84094 254.294C20.5155 254.797 37.1705 255.884 53.7657 257.587C69.1994 259.171 84.5764 261.279 99.8669 263.908C103.061 264.456 106.25 265.028 109.436 265.622L111.347 265.981C114.533 266.584 118.426 266.833 121.262 268.535C124.253 270.328 125.062 274.076 126.057 277.167C127.227 280.801 128.367 284.447 129.477 288.101C133.882 302.609 137.907 317.243 141.497 331.974C143.279 339.285 144.861 346.638 146.527 353.977C148.007 360.497 149.64 366.943 151.347 373.398C151.136 373.235 150.878 373.11 150.567 373.044C142.094 371.243 133.444 370.459 124.844 369.464L124.012 369.367C115.116 368.321 106.219 367.283 97.3173 366.283L38.3799 359.659C34.904 359.269 31.1803 359.216 27.7976 358.284C22.0465 356.698 20.6985 350.272 19.7336 345.155L19.7044 345C16.7953 329.539 14.4795 313.943 11.7664 298.442M149.975 355.425C152.263 355.274 155.395 353.179 157.131 353.329C156.22 354.858 155.809 356.601 156.334 358.462C157.796 363.642 164.406 360.962 167.59 359.38C170.201 358.081 172.722 356.493 175.612 355.885C178.886 355.197 181.105 356.498 183.871 357.998C186.143 359.23 188.617 360.115 191.162 360.573C192.515 360.816 193.8 360.842 195.083 360.747C195.16 360.81 195.248 360.868 195.347 360.92L196.025 361.276C192.957 361.417 189.831 362.363 186.976 363.23C184.017 364.127 181.112 365.209 178.222 366.315L175.38 367.407C168.368 370.091 161.11 372.639 153.521 372.617C152.976 372.615 152.529 372.766 152.177 373.012M162.777 339.194C160.517 338.918 158.43 339.214 156.624 340.685C154.445 342.458 152.982 345.399 149.85 345.593C148.937 345.649 148.725 346.932 149.632 347.2C151.964 347.89 153.851 346.629 155.439 344.993L156.507 343.878C158.077 342.254 159.524 340.998 162.187 341.095C165.04 341.199 167.897 341.858 170.73 342.193C173.94 342.572 177.15 342.895 180.37 343.174C180.519 343.187 180.545 342.952 180.405 342.917L176.798 342.02M164.959 329.959L164.586 329.921C161.304 329.603 158.302 329.59 155.37 331.355L154.808 331.695C152.165 333.301 149.288 335.192 147.635 337.792C147.364 338.217 147.811 338.718 148.264 338.609C151.44 337.847 153.763 335.518 156.434 333.775C159.433 331.818 162.53 332.141 165.948 332.445C169.258 332.739 172.567 333.144 175.844 333.695C178.924 334.213 182.013 335.03 185.124 335.29L185.123 335.284C185.479 335.283 185.681 334.75 185.319 334.569C182.162 332.994 178.506 332.248 175.072 331.528M277.363 240.753C277.367 240.493 277.002 240.396 276.875 240.621C274.739 244.376 273.622 248.979 272.485 253.117C271.293 257.451 270.331 261.829 269.467 266.239C267.716 275.169 266.784 284.048 266.72 293.15C266.712 294.449 268.83 294.795 269.037 293.463C270.413 284.61 271.731 275.747 273.117 266.896C273.815 262.445 274.627 258.01 275.404 253.572M256.219 247.294C256.376 246.776 255.622 246.603 255.429 247.076C251.143 257.591 249.691 269.508 252.443 280.601C252.864 282.298 255.351 281.563 255.033 279.887M200.93 237.95C200.952 237.563 200.448 237.502 200.258 237.768C198.227 240.628 197.385 244.458 193.822 245.936C192.043 246.674 190.041 246.546 188.469 247.792C187.418 248.626 186.612 249.942 187.401 251.204C187.655 251.612 188.367 251.816 188.713 251.373C189.217 250.727 189.483 249.954 190.168 249.47C191.133 248.787 192.435 248.745 193.542 248.424C194.974 248.009 196.237 247.283 197.27 246.204M167 190.251C166.79 190.144 166.589 190.212 166.456 190.393C166.264 190.651 166.288 190.902 166.522 191.078C166.209 191.717 165.84 193.317 165.787 193.55C165.573 194.495 165.346 195.433 165.108 196.371C164.628 198.263 164.207 200.17 163.726 202.062C163.217 204.068 162.61 206.053 161.934 208.009C161.891 208.136 161.843 208.265 161.793 208.396L161.716 208.594L161.697 208.564C161.559 208.347 161.274 208.499 161.307 208.728C161.339 208.937 161.381 209.145 161.417 209.353L161.346 209.541C160.904 210.729 160.602 211.981 161.412 213.029C161.716 213.422 162.049 213.654 162.465 213.723C163.132 215.92 163.968 218.076 164.864 220.146L165.127 220.75C166.444 223.771 167.849 226.753 169.947 229.324C172.237 232.132 175.387 234.049 177.382 237.126C178.311 238.557 178.956 240.062 179.48 241.678L179.678 242.292C180.05 243.435 180.479 244.543 181.552 245.214C181.894 245.428 182.407 245.359 182.684 245.068C184.884 242.742 182.58 238.398 181.254 236.146C179.409 233.014 176.74 231.01 174.067 228.647C171.186 226.1 169.348 222.693 167.57 219.337C166.481 217.28 165.43 215.18 164.324 213.114C165.48 212.093 165.85 210.064 166.242 208.654L166.277 208.528C166.925 206.27 167.439 203.953 167.764 201.626C168.077 199.389 168.207 197.183 168.125 194.933L168.101 194.36M162.7 200.899C162.956 200.55 162.533 200.153 162.183 200.226C160.052 200.666 157.968 201.956 156.055 202.998L155.851 203.109C154.325 203.931 152.788 204.939 151.987 206.538C151.115 208.275 151.187 210.276 151.306 212.164L151.317 212.341C151.463 214.605 151.486 216.957 151.965 219.18C152.211 220.318 153.242 220.639 154.124 220.37C155.173 223.68 158.119 226.119 160.272 228.732C163.017 232.062 162.5 236.558 162.213 240.569C162.097 242.193 164.118 242.655 165.159 241.788L167.558 239.797C167.958 239.465 168.357 239.132 168.755 238.797C169.096 238.511 169.433 238.222 169.768 237.929L170.269 237.488C170.491 237.29 171.469 236.197 171.756 236.151C172.449 236.041 174.096 237.867 174.659 238.44L174.731 238.511C175.792 239.551 176.75 240.669 177.643 241.856C177.807 242.074 178.128 241.893 178.011 241.641C177.211 239.928 176.281 238.291 175.176 236.758L174.953 236.453C174.218 235.463 173.232 233.716 171.935 233.424C170.351 233.067 168.769 234.654 167.617 235.535L167.544 235.591C166.995 236.002 166.453 236.42 165.913 236.841C165.969 233.855 165.592 230.837 164.049 228.264C162.961 226.449 161.331 225.105 159.937 223.545C158.384 221.808 157.573 219.674 156.168 217.865C155.987 217.633 155.737 217.507 155.467 217.467C155.413 216.013 155.199 214.545 155.033 213.106L154.985 212.676C154.818 211.113 154.422 209.204 155.188 207.741C155.911 206.358 157.571 205.382 158.799 204.444L159.803 203.667M231.861 184.374C232.503 184.745 233.102 185.206 233.646 185.783C235.359 187.599 236.584 189.858 237.775 192.032C238.417 193.202 239.035 194.386 239.682 195.554C239.963 196.062 240.253 196.565 240.545 197.066C240.68 197.298 241.082 197.757 241.281 198.04C241.06 198.35 240.831 198.655 240.598 198.957C240.509 199.073 234.365 205.761 232.224 208.378C228.945 212.388 226.013 216.623 223.508 221.156C221.054 225.595 219.186 230.295 216.912 234.82C215.775 237.086 214.504 239.335 212.884 241.296C212.822 241.372 212.756 241.445 212.692 241.52C212.074 239.851 210.49 238.064 209.712 237.038L209.639 236.941C207.875 234.564 206.011 232.259 204.108 229.993C202.369 227.923 200.586 225.899 198.76 223.908L198.073 223.163C196.8 221.789 195.184 219.734 193.322 218.752C193.521 218.397 193.752 218.045 194.018 217.698C195.763 215.419 198.23 213.765 200.664 212.273L202.242 211.313C208.193 207.689 214.051 203.897 219.216 199.189C221.949 196.697 224.645 194.087 226.942 191.181L227.754 190.154M221.933 182.58C224.719 182.814 227.728 182.758 230.303 183.666C228.014 185.829 225.838 188.164 223.603 190.363C223.404 188.876 222.997 187.406 222.652 185.956" fill="black"/>
<path fill-rule="evenodd" clip-rule="evenodd" d="M187.145 30.2592C164.246 30.2592 140.56 47.9549 132.166 59.247C122.46 72.304 114.803 134.985 118.395 156.253C121.987 177.522 139.829 200.704 170.802 200.704C201.774 200.704 220.623 196.901 221.379 191.376C222.135 185.852 241.808 155.102 241.808 155.102C241.808 155.102 261.928 149.46 262.007 135.984C262.086 122.507 251.225 117.604 251.225 117.604C251.225 117.604 255.097 64.4191 245.345 50.5723C235.592 36.7255 210.045 30.2592 187.145 30.2592Z" fill="white"/>
<path fill-rule="evenodd" clip-rule="evenodd" d="M198.805 24.9284L198.396 24.9301C173.059 25.0933 147.29 36.7165 132.216 57.0208L131.763 57.6387C131.738 57.6709 131.287 58.3403 131.181 58.531C130.556 59.6488 129.82 60.6947 129.255 61.8316C128.779 62.7965 128.462 63.8744 128.111 64.9022L128.005 65.2089C127.105 67.7741 126.347 70.3634 125.678 72.9969C124.379 78.1232 123.367 83.3299 122.383 88.5246C118.866 107.126 116.566 125.993 115.407 144.884L115.179 148.683C114.945 152.623 114.768 156.579 115.212 160.506C115.724 165.078 117.043 169.368 119.039 173.509C120.879 177.329 123.25 180.867 125.964 184.119C127.416 185.86 128.956 187.553 130.852 188.827C132.361 189.841 134.123 190.508 135.821 191.152C138.583 193.902 142.128 195.98 145.592 197.641C151.303 200.371 157.494 201.879 163.757 202.635C170.161 203.402 176.63 203.218 182.982 202.12C189.052 201.075 195.558 198.401 199.296 193.307C199.618 192.868 199.018 192.454 198.623 192.635C187.773 197.641 175.582 198.948 163.757 197.368C158.24 196.632 152.812 195.112 147.774 192.752C143.523 190.762 139.939 187.867 136.123 185.245C135.381 184.26 134.631 183.291 133.776 182.391L132.441 180.995C131.444 179.948 130.464 178.886 129.574 177.739C126.823 174.205 124.545 170.196 123.04 165.978C120.114 157.768 120.905 148.857 121.422 140.301L121.467 139.547C121.999 130.396 122.867 121.277 124.068 112.19C125.271 103.091 126.799 94.0289 128.605 85.0307C129.497 80.5959 130.497 76.1893 131.38 71.7545C131.836 69.4668 132.154 67.1468 132.501 64.835C132.711 63.4277 132.707 62.0728 132.711 60.6977C132.751 60.7621 132.8 60.8224 132.849 60.8827C132.703 61.2244 132.804 61.6627 133.159 61.8637C134.502 62.6276 136.05 62.3703 137.563 62.3743C139.168 62.3824 140.773 62.3864 142.379 62.3904C144.05 62.3965 145.722 62.3965 147.394 62.3939L152.409 62.3824L172.469 62.3221C185.606 62.2828 198.966 62.8036 212.061 61.5689L213.061 61.4705C214.09 61.3524 225.702 59.9366 228.843 59.571L228.938 59.5599C234.677 58.9005 240.335 57.9235 245.913 56.46C244.09 57.1877 242.336 58.1687 240.529 58.9126C238.198 59.8695 235.807 60.7058 233.415 61.5059C228.507 63.1503 223.591 64.7465 218.703 66.4432C217.301 66.9288 214.117 78.8975 213.314 80.7909L213.291 80.8452C212.883 81.7579 212.322 82.759 212.633 83.7963C213.318 86.0881 216.953 87.7848 218.755 89.0795L220.608 90.4128L223.032 92.1609C224.026 92.8708 224.944 93.4139 226.245 93.0076C226.249 93.0036 226.252 93.0036 226.256 93.0036C225.143 98.1541 224.603 114.812 224.437 117.735C224.293 120.28 223.542 123.54 224.736 125.86C225.018 126.411 225.752 126.845 226.378 126.801C229.104 126.596 231.83 126.395 234.556 126.194C235.286 126.138 235.952 125.724 236.154 124.984L236.162 124.944C236.25 124.968 236.351 124.952 236.435 124.863C236.585 124.714 236.738 124.57 236.896 124.429C240.485 121.237 246.099 120.449 250.527 122.109C252.85 122.978 255.491 124.441 257.129 126.339C258.948 128.446 259.339 131.389 259.343 134.079C259.351 139.265 257.472 144.516 253.637 148.115C250.113 151.418 245.566 152.379 240.991 153.325L240.501 153.426C239.457 153.643 239.125 155.195 239.912 155.846C237.819 157.889 236.012 160.325 234.25 162.573C231.909 165.554 229.671 168.654 227.494 171.761L226.443 173.264C222.698 178.593 217.276 185.933 219.634 192.595C219.949 193.492 221.263 193.813 221.776 192.872C223.458 189.777 224.397 186.367 225.994 183.235C227.563 180.163 229.515 177.317 231.451 174.47L232.568 172.82C234.427 170.065 236.269 167.28 237.976 164.442L239.165 162.477C240.282 160.622 241.388 158.705 242.211 156.711C247.716 158.034 253.701 155.09 257.569 151.17C262.432 146.233 264.719 138.96 264.09 132.12C263.759 128.542 262.698 125.08 260.069 122.507C259.803 122.25 259.524 122.005 259.238 121.759C259.339 121.707 259.424 121.627 259.464 121.53C261.227 117.357 261.602 112.383 261.751 107.888C261.908 103.24 261.807 98.5802 261.453 93.9404C260.803 85.4327 259.263 76.9693 256.818 68.7913C253.201 56.7052 246.986 44.8725 237.057 36.7628C226.468 28.1133 212.283 24.9059 198.805 24.9284ZM251.511 130.641C250.015 129.964 247.683 131.169 246.351 131.937L246.264 131.988C242.332 134.268 239.533 138.151 238.238 142.454C237.408 145.228 242.074 146.333 242.469 143.616C242.791 141.4 243.534 139.325 244.755 137.472C245.046 137.568 245.328 137.693 245.582 137.854C246.554 138.481 247.119 139.559 248.47 139.398C249.47 139.281 250.495 138.59 250.426 137.448C250.317 135.562 248.793 134.81 247.159 134.714C247.392 134.506 247.628 134.3 247.868 134.101L248.132 133.89C248.431 133.675 251.627 131.477 251.719 132.043L251.721 132.076C251.717 132.301 252.019 132.43 252.172 132.261C252.79 131.602 252.216 130.963 251.511 130.641Z" fill="black"/>
<path fill-rule="evenodd" clip-rule="evenodd" d="M167.303 175.555C169.708 174.571 171.854 172.931 173.423 170.835C173.968 170.107 174.11 169.337 173.995 168.634C173.867 167.842 173.4 167.125 172.763 166.644C172.124 166.162 171.325 165.924 170.552 166.045C169.881 166.151 169.213 166.519 168.684 167.283L168.573 167.436C167.64 168.701 166.425 169.739 165.04 170.408C163.705 171.052 162.212 171.353 160.667 171.178C157.725 170.845 155.697 169.25 153.541 167.084C153.274 166.811 153.007 166.529 152.738 166.242C152.568 165.982 152.333 165.815 152.071 165.728C151.781 165.63 151.453 165.636 151.152 165.741C150.862 165.843 150.603 166.035 150.429 166.291C150.263 166.534 150.17 166.834 150.2 167.18C150.397 169.425 151.568 171.428 153.231 173.001C155.079 174.748 157.527 175.957 159.832 176.381C162.372 176.848 164.959 176.513 167.303 175.555ZM158.634 140.925C155.932 142.571 151.815 146.41 154.722 150.491C158.143 154.089 163.069 149.964 165.497 148.098C167.747 146.652 170.276 150.371 168.188 152.059C150.648 165.076 143.529 141.356 157.268 138.99C158.78 138.729 159.342 140.416 158.634 140.925ZM190.067 125.783C189.768 122.069 184.125 121.226 183.563 124.901C183.061 128.194 183.653 131.218 185.132 134.182C186.546 137.014 190.099 135.693 190.367 133.114C190.728 129.658 190.252 128.094 190.067 125.783ZM147.109 124.139C146.322 123.106 145.186 122.401 143.825 122.8C139.572 124.045 140.826 130.096 142.319 133.042C143.131 134.641 145.754 135.047 146.939 133.639C148.871 131.342 149.796 126.755 147.34 124.493C147.273 124.376 147.199 124.258 147.109 124.139ZM185.192 109.531L184.52 109.413C182.442 109.053 179.858 108.707 178.388 110.381C177.609 111.269 177.34 112.92 178.388 113.769C180.232 115.265 182.27 114.685 184.479 114.812C186.299 114.917 188.049 115.219 189.802 115.721C193.649 116.823 196.784 118.835 200.07 121.044C200.501 121.334 200.941 120.782 200.735 120.377C198.839 116.654 195.163 113.595 191.481 111.73C189.516 110.735 187.366 109.909 185.192 109.531ZM150.985 107.864L150.471 107.969C144.876 109.141 137.607 111.483 134.957 116.991C134.856 117.77 134.963 117.937 135.05 118.046L135.079 118.083C135.15 118.176 135.207 118.304 135.544 118.41C135.637 118.388 135.732 118.364 135.827 118.339C137.042 118.02 138.003 117.581 138.933 117.125L139.941 116.626C141.112 116.051 142.292 115.497 143.543 115.088C146.213 114.215 148.959 113.6 151.748 113.272C152.353 113.201 152.935 112.996 153.394 112.646C153.83 112.313 154.163 111.853 154.314 111.241C154.511 110.448 154.455 109.848 154.031 109.134C153.712 108.597 153.255 108.225 152.732 108.011C152.197 107.794 151.589 107.742 150.985 107.864Z" fill="black"/>
</svg>
