<svg width="133" height="57" viewBox="0 0 133 57" fill="none" xmlns="http://www.w3.org/2000/svg">
<path fill-rule="evenodd" clip-rule="evenodd" d="M9.27907 24.6596H2.2093H0V26.6809V54.9787V57H2.2093H73.7907H76V54.9787V51.3404H73.7907V54.9787H2.2093V26.6809H9.27907V24.6596Z" fill="black"/>
<path fill-rule="evenodd" clip-rule="evenodd" d="M53.4651 2.02128H130.791V33.9574H115.326V35.9787H130.791H133V33.9574V2.02128V0H130.791H53.4651H51.2558V2.02128V13.3404H53.4651V2.02128Z" fill="black"/>
<path d="M17.9126 38.8085H12.7346V15.8165H17.9126V38.8085Z" fill="black"/>
<path d="M21.7098 32.6183C21.7098 31.5551 22.032 30.5707 22.6764 29.6654C23.3323 28.76 24.529 27.7546 26.2665 26.6493C25.5186 25.7333 24.9318 24.8754 24.506 24.0753C24.0802 23.2647 23.8674 22.4225 23.8674 21.5487C23.8674 19.759 24.483 18.3062 25.7142 17.1903C26.9569 16.0639 28.6254 15.5007 30.7196 15.5007C32.5952 15.5007 34.1314 16.0112 35.3281 17.0324C36.5363 18.0536 37.1404 19.3274 37.1404 20.8539C37.1404 22.6857 36.1278 24.3016 34.1027 25.7018L32.1695 26.9809L36.5018 31.5919C37.1807 30.3707 37.5202 29.0232 37.5202 27.5493H41.7661C41.7661 30.5392 41.0125 32.9605 39.5051 34.8133L43.2678 38.8085H37.6065L36.312 37.4504C34.4594 38.5664 32.3306 39.1243 29.9257 39.1243C27.4402 39.1243 25.4496 38.5295 23.9536 37.3399C22.4578 36.1398 21.7098 34.5659 21.7098 32.6183ZM30.1673 35.4608C31.364 35.4608 32.4975 35.1554 33.5676 34.5449L28.6139 29.3022L28.2514 29.539C27.2273 30.3391 26.7153 31.2813 26.7153 32.3657C26.7153 33.2816 27.0317 34.029 27.6646 34.608C28.309 35.1765 29.1432 35.4608 30.1673 35.4608ZM28.3377 21.4855C28.3377 22.2751 28.844 23.2699 29.8566 24.47L31.1857 23.6647C31.8646 23.2647 32.3306 22.8751 32.5838 22.4961C32.8484 22.1172 32.9807 21.6645 32.9807 21.1381C32.9807 20.6118 32.7679 20.1538 32.3421 19.7643C31.9164 19.3748 31.3698 19.18 30.7024 19.18C29.989 19.18 29.4136 19.3905 28.9764 19.8117C28.5506 20.2328 28.3377 20.7907 28.3377 21.4855Z" fill="black"/>
<path d="M51.1038 30.7076V38.8085H45.9261V15.8165H55.7296C57.6168 15.8165 59.2738 16.1323 60.7006 16.764C62.1388 17.3956 63.2435 18.2957 64.0145 19.4643C64.7856 20.6223 65.1709 21.9435 65.1709 23.4279C65.1709 25.6807 64.3252 27.4599 62.6337 28.7653C60.9538 30.0602 58.6234 30.7076 55.6435 30.7076H51.1038ZM51.1038 26.8704H55.7296C57.099 26.8704 58.1404 26.5756 58.8536 25.986C59.5787 25.3965 59.941 24.5543 59.941 23.4594C59.941 22.333 59.5787 21.4224 58.8536 20.7276C58.1289 20.0328 57.1277 19.6748 55.8503 19.6538H51.1038V26.8704Z" fill="black"/>
<path d="M73.9219 30.7076V38.8085H68.7437V15.8165H78.5477C80.4345 15.8165 82.0914 16.1323 83.5186 16.764C84.9569 17.3956 86.0616 18.2957 86.8326 19.4643C87.6032 20.6223 87.9889 21.9435 87.9889 23.4279C87.9889 25.6807 87.1432 27.4599 85.4518 28.7653C83.7718 30.0602 81.4415 30.7076 78.4611 30.7076H73.9219ZM73.9219 26.8704H78.5477C79.917 26.8704 80.9581 26.5756 81.6717 25.986C82.3968 25.3965 82.7591 24.5543 82.7591 23.4594C82.7591 22.333 82.3968 21.4224 81.6717 20.7276C80.9466 20.0328 79.9458 19.6748 78.6683 19.6538H73.9219V26.8704Z" fill="black"/>
<path d="M112.205 27.8336C112.205 30.097 111.768 32.0814 110.893 33.7869C110.019 35.4924 108.764 36.8083 107.13 37.7347C105.508 38.6611 103.644 39.1243 101.538 39.1243C99.4553 39.1243 97.5972 38.6664 95.9632 37.7505C94.3292 36.8346 93.0633 35.5292 92.1659 33.8343C91.2685 32.1288 90.8138 30.1707 90.8023 27.9599V26.823C90.8023 24.5595 91.2455 22.5698 92.1314 20.8539C93.0288 19.1274 94.289 17.8062 95.9111 16.8903C97.5451 15.9639 99.4093 15.5007 101.504 15.5007C103.598 15.5007 105.456 15.9639 107.079 16.8903C108.713 17.8062 109.972 19.1274 110.859 20.8539C111.756 22.5698 112.205 24.5543 112.205 26.8072V27.8336ZM106.958 26.7914C106.958 24.3806 106.486 22.5488 105.542 21.296C104.599 20.0432 103.253 19.4169 101.504 19.4169C99.7659 19.4169 98.4257 20.038 97.4819 21.2802C96.5385 22.512 96.0609 24.3227 96.0494 26.7124V27.8336C96.0494 30.1812 96.5213 32.0025 97.4647 33.2974C98.4085 34.5922 99.7659 35.2397 101.538 35.2397C103.276 35.2397 104.61 34.6186 105.542 33.3763C106.475 32.1235 106.946 30.3023 106.958 27.9126V26.7914Z" fill="black"/>
<path d="M46.1863 48.1371C46.1863 47.861 46.0719 47.6472 45.8421 47.496C45.6168 47.3411 45.22 47.2085 44.6522 47.0982C44.0882 46.9874 43.6392 46.8548 43.3049 46.7C42.9747 46.5456 42.729 46.3612 42.5679 46.1474C42.4108 45.9339 42.3323 45.6796 42.3323 45.3849C42.3323 44.8946 42.5578 44.4802 43.0089 44.1411C43.464 43.8023 44.0439 43.6329 44.7485 43.6329C45.49 43.6329 46.09 43.8079 46.5491 44.1576C47.0122 44.5077 47.2437 44.9556 47.2437 45.501H46.1201C46.1201 45.2208 45.9893 44.9795 45.7273 44.7769C45.4696 44.574 45.1436 44.4729 44.7485 44.4729C44.342 44.4729 44.0238 44.5538 43.7942 44.7159C43.5647 44.878 43.4499 45.0898 43.4499 45.3518C43.4499 45.5984 43.5566 45.7848 43.7701 45.9097C43.9835 46.035 44.3681 46.1551 44.9239 46.2691C45.4838 46.3835 45.9367 46.5197 46.2831 46.6782C46.6295 46.8366 46.8854 47.0282 47.0502 47.253C47.2194 47.4741 47.3043 47.7446 47.3043 48.0652C47.3043 48.5996 47.0705 49.0289 46.6035 49.3531C46.136 49.6737 45.5302 49.8338 44.7848 49.8338C44.2616 49.8338 43.7983 49.7493 43.3955 49.5799C42.9928 49.4101 42.6766 49.1744 42.4471 48.8725C42.2215 48.5664 42.1088 48.2366 42.1088 47.8828H43.2264C43.2465 48.2256 43.3955 48.4981 43.6734 48.7011C43.9553 48.8999 44.3257 48.9994 44.7848 48.9994C45.2076 48.9994 45.5461 48.9222 45.7997 48.7674C46.0578 48.6089 46.1863 48.3987 46.1863 48.1371Z" fill="black"/>
<path d="M51.3818 48.9994C51.7808 48.9994 52.129 48.889 52.4268 48.6679C52.7251 48.4468 52.8903 48.1703 52.9222 47.8388H53.9795C53.9592 48.1816 53.8306 48.5074 53.5929 48.8171C53.3552 49.1263 53.037 49.3733 52.6385 49.5577C52.2439 49.742 51.825 49.8338 51.3818 49.8338C50.4919 49.8338 49.7832 49.5633 49.2556 49.0216C48.732 48.4763 48.47 47.7321 48.47 46.7885V46.6171C48.47 46.035 48.5871 45.5175 48.8204 45.0644C49.0541 44.6112 49.3882 44.2591 49.8234 44.0085C50.2622 43.7578 50.78 43.6329 51.3756 43.6329C52.1087 43.6329 52.7171 43.8334 53.2001 44.2352C53.6875 44.6367 53.9473 45.1582 53.9795 45.7993H52.9222C52.8903 45.4124 52.7291 45.0955 52.4392 44.8485C52.1533 44.5983 51.7989 44.4729 51.3756 44.4729C50.8079 44.4729 50.3669 44.6609 50.0527 45.0365C49.743 45.4088 49.5879 45.9485 49.5879 46.6559V46.8496C49.5879 47.5384 49.743 48.0692 50.0527 48.4411C50.3629 48.8134 50.8061 48.9994 51.3818 48.9994Z" fill="black"/>
<path d="M56.4503 49.7234H55.3329V43.7432H56.4503V49.7234ZM55.2419 42.1569C55.2419 41.9912 55.2966 41.8513 55.4053 41.7369C55.518 41.6229 55.6833 41.5655 55.9007 41.5655C56.1181 41.5655 56.2833 41.6229 56.396 41.7369C56.5087 41.8513 56.5652 41.9912 56.5652 42.1569C56.5652 42.3227 56.5087 42.4609 56.396 42.5717C56.2833 42.6821 56.1181 42.7375 55.9007 42.7375C55.6833 42.7375 55.518 42.6821 55.4053 42.5717C55.2966 42.4609 55.2419 42.3227 55.2419 42.1569Z" fill="black"/>
<path d="M60.957 49.8338C60.071 49.8338 59.3499 49.5686 58.7945 49.0382C58.2386 48.5038 57.9607 47.7907 57.9607 46.8993V46.7113C57.9607 46.1179 58.0835 45.5891 58.3292 45.125C58.5789 44.6569 58.9253 44.2922 59.368 44.0307C59.8152 43.7655 60.2986 43.6329 60.8182 43.6329C61.6679 43.6329 62.3285 43.8888 62.7995 44.401C63.2705 44.9132 63.5065 45.6465 63.5065 46.6005V47.0262H59.0782C59.0945 47.6156 59.2814 48.0931 59.6402 48.4577C60.0025 48.8187 60.4616 48.9994 61.0175 48.9994C61.4121 48.9994 61.7466 48.9258 62.0201 48.7783C62.294 48.6311 62.5335 48.4355 62.739 48.1925L63.4217 48.6788C62.8742 49.4489 62.0523 49.8338 60.957 49.8338ZM60.8182 44.4729C60.3671 44.4729 59.9884 44.6237 59.6822 44.9261C59.3764 45.2245 59.1869 45.6445 59.1144 46.1862H62.3886V46.109C62.3563 45.5891 62.2034 45.1877 61.9295 44.9039C61.6555 44.6165 61.2853 44.4729 60.8182 44.4729Z" fill="black"/>
<path d="M65.8624 43.7433L65.8986 44.4948C66.3979 43.9203 67.0501 43.6329 67.8556 43.6329C69.2373 43.6329 69.9337 44.3456 69.946 45.7718V49.7234H68.8286V45.7662C68.8242 45.3352 68.7155 45.0163 68.502 44.8101C68.2926 44.6035 67.9643 44.5004 67.5176 44.5004C67.1548 44.5004 66.8367 44.589 66.5632 44.7656C66.2892 44.9427 66.0758 45.1747 65.9225 45.4622V49.7234H64.805V43.7433H65.8624Z" fill="black"/>
<path d="M74.2533 48.9994C74.6519 48.9994 75.0005 48.889 75.2983 48.6679C75.5966 48.4468 75.7614 48.1703 75.7936 47.8388H76.851C76.8307 48.1816 76.7021 48.5074 76.4644 48.8171C76.2266 49.1263 75.9085 49.3733 75.5099 49.5577C75.1149 49.742 74.696 49.8338 74.2533 49.8338C73.3634 49.8338 72.6542 49.5633 72.1266 49.0216C71.603 48.4763 71.3414 47.7321 71.3414 46.7885V46.6171C71.3414 46.035 71.4581 45.5175 71.6918 45.0644C71.9256 44.6112 72.2596 44.2591 72.6949 44.0085C73.1336 43.7578 73.651 43.6329 74.2471 43.6329C74.9802 43.6329 75.5882 43.8334 76.0716 44.2352C76.5589 44.6367 76.8187 45.1582 76.851 45.7993H75.7936C75.7614 45.4124 75.6005 45.0955 75.3102 44.8485C75.0243 44.5983 74.67 44.4729 74.2471 44.4729C73.6793 44.4729 73.2383 44.6609 72.9242 45.0365C72.614 45.4088 72.4589 45.9485 72.4589 46.6559V46.8496C72.4589 47.5384 72.614 48.0692 72.9242 48.4411C73.2344 48.8134 73.6771 48.9994 74.2533 48.9994Z" fill="black"/>
<path d="M80.8198 49.8338C79.9339 49.8338 79.2128 49.5686 78.6574 49.0382C78.1015 48.5038 77.8236 47.7907 77.8236 46.8993V46.7113C77.8236 46.1179 77.9464 45.5891 78.1921 45.125C78.4417 44.6569 78.7882 44.2922 79.2309 44.0307C79.6781 43.7655 80.1615 43.6329 80.6811 43.6329C81.5308 43.6329 82.1914 43.8888 82.6624 44.401C83.1339 44.9132 83.3694 45.6465 83.3694 46.6005V47.0262H78.941C78.9574 47.6156 79.1447 48.0931 79.5031 48.4577C79.8654 48.8187 80.3245 48.9994 80.8804 48.9994C81.2749 48.9994 81.6094 48.9258 81.8829 48.7783C82.1569 48.6311 82.3968 48.4355 82.6019 48.1925L83.2845 48.6788C82.7371 49.4489 81.9152 49.8338 80.8198 49.8338ZM80.6811 44.4729C80.2299 44.4729 79.8513 44.6237 79.5451 44.9261C79.2393 45.2245 79.0497 45.6445 78.9773 46.1862H82.2515V46.109C82.2196 45.5891 82.0663 45.1877 81.7924 44.9039C81.5189 44.6165 81.1481 44.4729 80.6811 44.4729Z" fill="black"/>
<path d="M90.3586 48.9994C90.7571 48.9994 91.1058 48.889 91.4036 48.6679C91.7018 48.4468 91.8671 48.1703 91.8989 47.8388H92.9563C92.936 48.1816 92.8074 48.5074 92.5696 48.8171C92.3319 49.1263 92.0138 49.3733 91.6152 49.5577C91.2206 49.742 90.8018 49.8338 90.3586 49.8338C89.4687 49.8338 88.7599 49.5633 88.2323 49.0216C87.7087 48.4763 87.4467 47.7321 87.4467 46.7885V46.6171C87.4467 46.035 87.5638 45.5175 87.7971 45.0644C88.0309 44.6112 88.3649 44.2591 88.8001 44.0085C89.2389 43.7578 89.7563 43.6329 90.3524 43.6329C91.0854 43.6329 91.6939 43.8334 92.1768 44.2352C92.6642 44.6367 92.924 45.1582 92.9563 45.7993H91.8989C91.8671 45.4124 91.7058 45.0955 91.416 44.8485C91.1301 44.5983 90.7752 44.4729 90.3524 44.4729C89.7846 44.4729 89.3436 44.6609 89.0295 45.0365C88.7193 45.4088 88.5646 45.9485 88.5646 46.6559V46.8496C88.5646 47.5384 88.7193 48.0692 89.0295 48.4411C89.3396 48.8134 89.7828 48.9994 90.3586 48.9994Z" fill="black"/>
<path d="M97.3725 44.6609C97.2033 44.6351 97.0203 44.6221 96.8228 44.6221C96.0898 44.6221 95.5922 44.9075 95.3307 45.4787V49.7234H94.2132V43.7433H95.3006L95.3187 44.4341C95.685 43.8997 96.2047 43.6329 96.8772 43.6329C97.0946 43.6329 97.2598 43.6584 97.3725 43.7101V44.6609Z" fill="black"/>
<path d="M100.997 49.8338C100.111 49.8338 99.3903 49.5686 98.8345 49.0382C98.2786 48.5038 98.0007 47.7907 98.0007 46.8993V46.7113C98.0007 46.1179 98.1235 45.5891 98.3692 45.125C98.6188 44.6569 98.9653 44.2922 99.4084 44.0307C99.8552 43.7655 100.339 43.6329 100.858 43.6329C101.708 43.6329 102.368 43.8888 102.839 44.401C103.311 44.9132 103.546 45.6465 103.546 46.6005V47.0262H99.1181C99.1345 47.6156 99.3218 48.0931 99.6802 48.4577C100.043 48.8187 100.502 48.9994 101.057 48.9994C101.452 48.9994 101.787 48.9258 102.06 48.7783C102.334 48.6311 102.574 48.4355 102.779 48.1925L103.462 48.6788C102.914 49.4489 102.092 49.8338 100.997 49.8338ZM100.858 44.4729C100.407 44.4729 100.028 44.6237 99.7226 44.9261C99.4164 45.2245 99.2268 45.6445 99.1544 46.1862H102.429V46.109C102.397 45.5891 102.243 45.1877 101.969 44.9039C101.696 44.6165 101.325 44.4729 100.858 44.4729Z" fill="black"/>
<path d="M110.633 48.3142L111.889 43.7433H113.007L111.104 49.7234H110.198L108.609 45.1913L107.062 49.7234H106.156L104.259 43.7433H105.371L106.658 48.22L108.18 43.7433H109.08L110.633 48.3142Z" fill="black"/>
</svg>
