<svg width="540" height="254" viewBox="0 0 540 254" fill="none" xmlns="http://www.w3.org/2000/svg">
<path fill-rule="evenodd" clip-rule="evenodd" d="M37.6744 109.887H8.9701H0V118.894V244.993V254H8.9701H299.601H308.571V244.993V228.78H299.601V244.993H8.9701V118.894H37.6744V109.887Z" fill="black"/>
<path fill-rule="evenodd" clip-rule="evenodd" d="M217.076 9.00709H531.03V151.319H468.239V160.326H531.03H540V151.319V9.00709V0H531.03H217.076H208.106V9.00709V59.4468H217.076V9.00709Z" fill="black"/>
<path d="M72.728 172.936H51.7042V70.4805H72.728V172.936Z" fill="black"/>
<path d="M88.1453 145.352C88.1453 140.614 89.4535 136.228 92.0697 132.193C94.7327 128.159 99.5915 123.679 106.646 118.753C103.609 114.671 101.227 110.848 99.498 107.283C97.7695 103.671 96.9051 99.9176 96.9051 96.0241C96.9051 88.049 99.4047 81.5752 104.404 76.6024C109.449 71.583 116.224 69.0732 124.726 69.0732C132.342 69.0732 138.579 71.3484 143.438 75.8988C148.343 80.4494 150.796 86.1256 150.796 92.9278C150.796 101.091 146.684 108.292 138.462 114.531L130.613 120.231L148.203 140.778C150.959 135.336 152.338 129.332 152.338 122.764H169.577C169.577 136.087 166.517 146.877 160.397 155.133L175.674 172.936H152.688L147.432 166.884C139.91 171.857 131.267 174.343 121.503 174.343C111.412 174.343 103.329 171.693 97.2555 166.392C91.182 161.044 88.1453 154.031 88.1453 145.352ZM122.484 158.018C127.343 158.018 131.945 156.658 136.29 153.937L116.177 130.575L114.705 131.63C110.547 135.196 108.468 139.394 108.468 144.226C108.468 148.307 109.753 151.638 112.323 154.218C114.939 156.751 118.326 158.018 122.484 158.018ZM115.056 95.7425C115.056 99.261 117.111 103.694 121.222 109.042L126.619 105.453C129.375 103.671 131.267 101.935 132.295 100.246C133.369 98.5572 133.907 96.54 133.907 94.1945C133.907 91.8489 133.043 89.8083 131.314 88.0724C129.585 86.3368 127.366 85.4688 124.656 85.4688C121.76 85.4688 119.424 86.407 117.648 88.2836C115.92 90.1601 115.056 92.6464 115.056 95.7425Z" fill="black"/>
<path d="M207.489 136.837V172.936H186.467V70.4805H226.271C233.933 70.4805 240.661 71.8878 246.453 74.7027C252.293 77.5172 256.778 81.5282 259.909 86.7354C263.039 91.8958 264.604 97.7831 264.604 104.398C264.604 114.437 261.17 122.365 254.302 128.182C247.481 133.952 238.02 136.837 225.921 136.837H207.489ZM207.489 119.738H226.271C231.83 119.738 236.059 118.425 238.954 115.797C241.898 113.17 243.37 109.417 243.37 104.538C243.37 99.519 241.898 95.4611 238.954 92.3648C236.012 89.2687 231.947 87.6738 226.76 87.5799H207.489V119.738Z" fill="black"/>
<path d="M300.134 136.837V172.936H279.11V70.4805H318.916C326.576 70.4805 333.304 71.8878 339.099 74.7027C344.938 77.5172 349.423 81.5282 352.554 86.7354C355.682 91.8958 357.249 97.7831 357.249 104.398C357.249 114.437 353.815 122.365 346.947 128.182C340.127 133.952 330.665 136.837 318.564 136.837H300.134ZM300.134 119.738H318.916C324.475 119.738 328.702 118.425 331.6 115.797C334.544 113.17 336.015 109.417 336.015 104.538C336.015 99.519 334.544 95.4611 331.6 92.3648C328.656 89.2687 324.592 87.6738 319.406 87.5799H300.134V119.738Z" fill="black"/>
<path d="M455.57 124.031C455.57 134.116 453.794 142.959 450.243 150.559C446.693 158.159 441.6 164.023 434.966 168.151C428.378 172.279 420.809 174.343 412.26 174.343C403.803 174.343 396.26 172.303 389.625 168.221C382.991 164.14 377.851 158.323 374.207 150.77C370.564 143.171 368.718 134.445 368.671 124.593V119.527C368.671 109.441 370.471 100.574 374.068 92.9278C377.711 85.2343 382.828 79.3469 389.414 75.2654C396.048 71.1373 403.617 69.0732 412.121 69.0732C420.622 69.0732 428.168 71.1373 434.756 75.2654C441.39 79.3469 446.505 85.2343 450.104 92.9278C453.747 100.574 455.57 109.417 455.57 119.457V124.031ZM434.264 119.386C434.264 108.643 432.35 100.481 428.518 94.8982C424.688 89.3156 419.221 86.5243 412.121 86.5243C405.065 86.5243 399.623 89.2922 395.791 94.8277C391.961 100.316 390.022 108.385 389.975 119.034V124.031C389.975 134.492 391.891 142.608 395.721 148.378C399.553 154.148 405.065 157.033 412.26 157.033C419.315 157.033 424.734 154.265 428.518 148.73C432.303 143.147 434.217 135.031 434.264 124.382V119.386Z" fill="black"/>
<path d="M187.524 214.506C187.524 213.275 187.059 212.322 186.126 211.649C185.211 210.959 183.6 210.368 181.295 209.876C179.005 209.382 177.182 208.792 175.825 208.102C174.484 207.414 173.486 206.592 172.832 205.639C172.194 204.688 171.876 203.555 171.876 202.242C171.876 200.057 172.791 198.21 174.623 196.699C176.47 195.189 178.825 194.434 181.686 194.434C184.696 194.434 187.133 195.214 188.996 196.773C190.877 198.333 191.817 200.329 191.817 202.759H187.254C187.254 201.51 186.723 200.435 185.66 199.532C184.614 198.628 183.29 198.178 181.686 198.178C180.035 198.178 178.743 198.538 177.811 199.26C176.879 199.983 176.413 200.927 176.413 202.094C176.413 203.193 176.846 204.023 177.713 204.58C178.58 205.138 180.141 205.673 182.398 206.181C184.671 206.691 186.51 207.298 187.916 208.004C189.323 208.711 190.362 209.564 191.031 210.566C191.718 211.551 192.062 212.757 192.062 214.185C192.062 216.567 191.113 218.48 189.217 219.924C187.319 221.353 184.859 222.066 181.833 222.066C179.709 222.066 177.828 221.69 176.192 220.935C174.557 220.178 173.274 219.128 172.342 217.782C171.426 216.419 170.968 214.949 170.968 213.373H175.506C175.587 214.9 176.192 216.114 177.321 217.019C178.465 217.905 179.969 218.348 181.833 218.348C183.55 218.348 184.924 218.004 185.954 217.314C187.002 216.608 187.524 215.671 187.524 214.506Z" fill="black"/>
<path d="M208.618 218.348C210.238 218.348 211.651 217.856 212.86 216.871C214.071 215.886 214.742 214.653 214.871 213.176H219.165C219.082 214.704 218.56 216.156 217.595 217.536C216.63 218.914 215.338 220.014 213.72 220.836C212.118 221.657 210.417 222.066 208.618 222.066C205.004 222.066 202.127 220.861 199.985 218.447C197.859 216.017 196.795 212.701 196.795 208.496V207.732C196.795 205.138 197.27 202.833 198.218 200.813C199.167 198.794 200.523 197.225 202.29 196.108C204.071 194.991 206.174 194.434 208.592 194.434C211.569 194.434 214.039 195.328 216 197.118C217.979 198.907 219.034 201.231 219.165 204.088H214.871C214.742 202.364 214.087 200.952 212.911 199.851C211.75 198.736 210.311 198.178 208.592 198.178C206.287 198.178 204.497 199.015 203.221 200.689C201.964 202.348 201.334 204.753 201.334 207.905V208.768C201.334 211.838 201.964 214.203 203.221 215.86C204.481 217.519 206.28 218.348 208.618 218.348Z" fill="black"/>
<path d="M229.197 221.574H224.66V194.926H229.197V221.574ZM224.29 187.857C224.29 187.119 224.513 186.495 224.954 185.986C225.411 185.478 226.082 185.222 226.965 185.222C227.848 185.222 228.519 185.478 228.976 185.986C229.434 186.495 229.663 187.119 229.663 187.857C229.663 188.596 229.434 189.212 228.976 189.706C228.519 190.197 227.848 190.444 226.965 190.444C226.082 190.444 225.411 190.197 224.954 189.706C224.513 189.212 224.29 188.596 224.29 187.857Z" fill="black"/>
<path d="M247.494 222.066C243.897 222.066 240.969 220.885 238.714 218.521C236.457 216.14 235.329 212.962 235.329 208.99V208.152C235.329 205.508 235.827 203.151 236.825 201.083C237.838 198.997 239.245 197.372 241.043 196.207C242.858 195.025 244.821 194.434 246.931 194.434C250.38 194.434 253.063 195.575 254.975 197.857C256.887 200.139 257.845 203.407 257.845 207.659V209.555H239.866C239.932 212.182 240.691 214.309 242.148 215.934C243.619 217.543 245.483 218.348 247.74 218.348C249.342 218.348 250.7 218.02 251.81 217.363C252.923 216.707 253.895 215.835 254.729 214.752L257.501 216.92C255.278 220.351 251.941 222.066 247.494 222.066ZM246.931 198.178C245.099 198.178 243.561 198.85 242.318 200.197C241.077 201.526 240.307 203.398 240.013 205.812H253.307V205.468C253.176 203.151 252.555 201.363 251.443 200.098C250.33 198.817 248.827 198.178 246.931 198.178Z" fill="black"/>
<path d="M267.411 194.926L267.558 198.275C269.586 195.715 272.234 194.434 275.504 194.434C281.114 194.434 283.941 197.61 283.992 203.966V221.574H279.455V203.94C279.437 202.02 278.995 200.599 278.129 199.68C277.278 198.76 275.945 198.3 274.132 198.3C272.659 198.3 271.367 198.695 270.257 199.482C269.144 200.271 268.278 201.305 267.655 202.586V221.574H263.118V194.926H267.411Z" fill="black"/>
<path d="M301.48 218.348C303.098 218.348 304.513 217.856 305.723 216.871C306.934 215.886 307.603 214.653 307.734 213.176H312.027C311.944 214.704 311.422 216.156 310.457 217.536C309.492 218.914 308.2 220.014 306.582 220.836C304.978 221.657 303.277 222.066 301.48 222.066C297.867 222.066 294.987 220.861 292.845 218.447C290.719 216.017 289.657 212.701 289.657 208.496V207.732C289.657 205.138 290.131 202.833 291.08 200.813C292.029 198.794 293.385 197.225 295.152 196.108C296.934 194.991 299.034 194.434 301.455 194.434C304.431 194.434 306.899 195.328 308.862 197.118C310.841 198.907 311.896 201.231 312.027 204.088H307.734C307.603 202.364 306.95 200.952 305.771 199.851C304.61 198.736 303.171 198.178 301.455 198.178C299.149 198.178 297.359 199.015 296.083 200.689C294.824 202.348 294.194 204.753 294.194 207.905V208.768C294.194 211.838 294.824 214.203 296.083 215.86C297.343 217.519 299.14 218.348 301.48 218.348Z" fill="black"/>
<path d="M328.141 222.066C324.544 222.066 321.616 220.885 319.361 218.521C317.104 216.14 315.975 212.962 315.975 208.99V208.152C315.975 205.508 316.474 203.151 317.472 201.083C318.485 198.997 319.892 197.372 321.689 196.207C323.505 195.025 325.467 194.434 327.577 194.434C331.027 194.434 333.709 195.575 335.622 197.857C337.536 200.139 338.492 203.407 338.492 207.659V209.555H320.512C320.579 212.182 321.339 214.309 322.794 215.934C324.265 217.543 326.129 218.348 328.386 218.348C329.988 218.348 331.346 218.02 332.457 217.363C333.569 216.707 334.543 215.835 335.376 214.752L338.148 216.92C335.925 220.351 332.588 222.066 328.141 222.066ZM327.577 198.178C325.746 198.178 324.208 198.85 322.965 200.197C321.723 201.526 320.954 203.398 320.66 205.812H333.953V205.468C333.824 203.151 333.201 201.363 332.089 200.098C330.979 198.817 329.473 198.178 327.577 198.178Z" fill="black"/>
<path d="M366.87 218.348C368.488 218.348 369.904 217.856 371.113 216.871C372.324 215.886 372.995 214.653 373.124 213.176H377.417C377.335 214.704 376.813 216.156 375.847 217.536C374.882 218.914 373.59 220.014 371.972 220.836C370.37 221.657 368.669 222.066 366.87 222.066C363.257 222.066 360.379 220.861 358.237 218.447C356.111 216.017 355.047 212.701 355.047 208.496V207.732C355.047 205.138 355.523 202.833 356.47 200.813C357.419 198.794 358.775 197.225 360.543 196.108C362.324 194.991 364.425 194.434 366.845 194.434C369.821 194.434 372.292 195.328 374.252 197.118C376.231 198.907 377.286 201.231 377.417 204.088H373.124C372.995 202.364 372.34 200.952 371.163 199.851C370.002 198.736 368.562 198.178 366.845 198.178C364.54 198.178 362.749 199.015 361.474 200.689C360.214 202.348 359.586 204.753 359.586 207.905V208.768C359.586 211.838 360.214 214.203 361.474 215.86C362.733 217.519 364.532 218.348 366.87 218.348Z" fill="black"/>
<path d="M395.346 199.015C394.659 198.9 393.916 198.842 393.114 198.842C390.138 198.842 388.118 200.114 387.056 202.66V221.574H382.519V194.926H386.934L387.008 198.005C388.495 195.623 390.605 194.434 393.335 194.434C394.218 194.434 394.889 194.548 395.346 194.778V199.015Z" fill="black"/>
<path d="M410.063 222.066C406.466 222.066 403.54 220.885 401.283 218.521C399.026 216.14 397.897 212.962 397.897 208.99V208.152C397.897 205.508 398.396 203.151 399.394 201.083C400.407 198.997 401.814 197.372 403.613 196.207C405.427 195.025 407.39 194.434 409.499 194.434C412.949 194.434 415.631 195.575 417.544 197.857C419.458 200.139 420.414 203.407 420.414 207.659V209.555H402.435C402.501 212.182 403.262 214.309 404.717 215.934C406.188 217.543 408.052 218.348 410.309 218.348C411.911 218.348 413.269 218.02 414.381 217.363C415.491 216.707 416.466 215.835 417.298 214.752L420.07 216.92C417.847 220.351 414.51 222.066 410.063 222.066ZM409.499 198.178C407.668 198.178 406.13 198.85 404.889 200.197C403.646 201.526 402.876 203.398 402.582 205.812H415.875V205.468C415.746 203.151 415.124 201.363 414.011 200.098C412.901 198.817 411.396 198.178 409.499 198.178Z" fill="black"/>
<path d="M449.185 215.295L454.287 194.926H458.824L451.097 221.574H447.42L440.968 201.379L434.689 221.574H431.01L423.308 194.926H427.822L433.046 214.875L439.226 194.926H442.881L449.185 215.295Z" fill="black"/>
</svg>
