<svg width="69" height="41" viewBox="0 0 69 41" fill="none" xmlns="http://www.w3.org/2000/svg">
<path d="M66.8291 3.13529C67.3016 1.56591 66.8291 0.415039 64.5949 0.415039H57.1935C55.3102 0.415039 54.4496 1.41067 53.9771 2.50417C53.9771 2.50417 50.214 11.6808 44.8815 17.6309C43.1602 19.3623 42.3739 19.909 41.4356 19.909C40.9665 19.909 40.2847 19.3623 40.2847 17.7929V3.13529C40.2847 1.25204 39.7414 0.415039 38.172 0.415039H26.5417C25.3672 0.415039 24.6585 1.28579 24.6585 2.11604C24.6585 3.89804 27.3247 4.30979 27.5981 9.33179V20.2263C27.5981 22.6124 27.1695 23.0478 26.2245 23.0478C23.7169 23.0478 17.6149 13.8374 13.9935 3.29391C13.2881 1.24529 12.576 0.418415 10.686 0.418415H3.288C1.17188 0.418415 0.75 1.41404 0.75 2.50754C0.75 4.47179 3.25762 14.1918 12.4309 27.0472C18.5464 35.8255 27.156 40.5843 34.9995 40.5843C39.7009 40.5843 40.2814 39.5279 40.2814 37.7054V31.0702C40.2814 28.9574 40.7302 28.5322 42.2186 28.5322C43.3121 28.5322 45.1954 29.0857 49.5862 33.3145C54.6015 38.3298 55.4317 40.5809 58.2499 40.5809H65.6479C67.7606 40.5809 68.817 39.5245 68.2095 37.4388C67.5446 35.3632 65.1484 32.3425 61.9691 28.7684C60.2411 26.7299 57.6592 24.5362 56.8729 23.4393C55.776 22.0252 56.0932 21.4008 56.8729 20.1453C56.8762 20.1487 65.8909 7.45192 66.8291 3.13529Z" fill="black"/>
</svg>
