<svg width="255" height="255" viewBox="0 0 255 255" fill="none" xmlns="http://www.w3.org/2000/svg">
<path d="M127.5 247.031C61.5889 247.031 7.96875 193.411 7.96875 127.5C7.96875 61.5889 61.5889 7.96875 127.5 7.96875C193.411 7.96875 247.031 61.5889 247.031 127.5C247.031 193.411 193.411 247.031 127.5 247.031Z" fill="#96B9FF"/>
<path d="M127.5 9.5625C192.531 9.5625 245.438 62.4686 245.438 127.5C245.438 192.531 192.531 245.438 127.5 245.438C62.4686 245.438 9.5625 192.531 9.5625 127.5C9.5625 62.4686 62.4686 9.5625 127.5 9.5625ZM127.5 6.375C60.6039 6.375 6.375 60.6039 6.375 127.5C6.375 194.396 60.6039 248.625 127.5 248.625C194.396 248.625 248.625 194.396 248.625 127.5C248.625 60.6039 194.396 6.375 127.5 6.375Z" fill="#B9BBDE"/>
<path d="M127.5 86.0625C132.781 86.0625 137.062 81.7812 137.062 76.5C137.062 71.2188 132.781 66.9375 127.5 66.9375C122.219 66.9375 117.938 71.2188 117.938 76.5C117.938 81.7812 122.219 86.0625 127.5 86.0625Z" fill="#36404D"/>
<path d="M137.062 178.5V98.8125H111.562V105.188H117.938V178.5H111.562V184.875H143.438V178.5H137.062Z" fill="#36404D"/>
</svg>
