<svg width="251" height="255" viewBox="0 0 251 255" fill="none" xmlns="http://www.w3.org/2000/svg">
<path d="M126.113 160.418V126.823" stroke="#96B9FF" stroke-width="10" stroke-miterlimit="10" stroke-linecap="round" stroke-linejoin="round"/>
<path d="M157.029 178.787L127.682 162.436" stroke="#96B9FF" stroke-width="10" stroke-miterlimit="10" stroke-linecap="round" stroke-linejoin="round"/>
<path d="M95.2172 178.787L124.564 162.436" stroke="#96B9FF" stroke-width="10" stroke-miterlimit="10" stroke-linecap="round" stroke-linejoin="round"/>
<path d="M135.582 72.6527V73.0521L135.972 73.1404C153.128 77.0272 164.854 89.8248 164.854 104.68V108.225H102.899V108.217H102.399H100.724H100.224V108.225H86.1461V104.68C86.1461 89.8254 97.8717 77.0272 115.027 73.1411L115.417 73.0528V72.6534V71.8197V71.4911L115.115 71.3607C106.933 67.8264 101.136 60.2425 99.8803 51.437L99.8374 51.1359L99.5503 51.0355C96.2911 49.8966 93.994 46.7822 93.994 43.2273C93.994 40.1251 95.7333 37.348 98.3615 35.9355L98.744 35.7299L98.594 35.3223C96.982 30.9443 96.6101 26.2807 97.5212 21.7615C98.7229 15.8017 102.124 10.4374 107.104 6.65926L107.104 6.65922C111.941 2.98859 118.064 0.962646 124.344 0.962646C126.334 0.962646 128.342 1.16385 130.311 1.56109C137.638 3.03868 143.997 7.07728 148.226 12.9263L148.226 12.9264C152.524 18.8699 154.113 25.9569 152.715 32.8875L152.715 32.8879C152.543 33.7487 152.318 34.6112 152.045 35.4672L151.922 35.8528L152.273 36.0535C154.801 37.4971 156.434 40.2031 156.434 43.2261C156.434 46.7343 154.17 49.839 150.958 51.0041L150.675 51.1065L150.633 51.4038C149.411 60.0046 143.796 67.5179 135.874 71.1422L135.582 71.2758V71.5969V72.6527ZM128.911 8.51034L128.911 8.51027C127.4 8.20665 125.863 8.05224 124.344 8.05224C114.625 8.05224 106.242 14.3752 104.471 23.1615C104.151 24.7515 104.05 26.3537 104.17 27.9519L104.242 28.917L104.988 28.2996C109.217 24.7952 112.882 21.5739 113.367 21.147L113.368 21.1462L117.351 17.6219L119.082 22.6306L119.082 22.6309L119.094 22.6667C119.239 23.0871 119.391 23.5282 119.713 23.9174C120.054 24.3287 120.545 24.6411 121.297 24.9182C122.771 25.4615 125.459 25.9411 130.614 26.6459C136.049 27.3904 141.23 29.3329 145.186 31.1784L145.785 31.4582L145.891 30.805C146.659 26.0393 145.454 21.1909 142.481 17.0797C139.294 12.6717 134.472 9.63186 128.911 8.51034ZM106.891 35.9041L105.792 36.7928H106.705V47.8144C106.705 58.0429 115.026 66.3643 125.255 66.3643C135.484 66.3643 143.804 58.0429 143.804 47.8144V38.6993V38.3892L143.526 38.2514C139.887 36.4467 134.829 34.3782 129.652 33.6698L129.584 34.1651L129.652 33.6698C125.886 33.1547 122.941 32.7228 120.589 32.1081C118.242 31.4949 116.53 30.7104 115.207 29.5174L114.881 29.2228L114.547 29.5091C112.521 31.2465 109.723 33.6132 106.891 35.9041ZM123.006 73.3535L122.984 73.8535H122.506V76.3105V76.6047L122.763 76.7476L125.25 78.1293L125.492 78.264L125.735 78.1296L128.236 76.7436L128.494 76.6009V76.3063V73.8091V73.2537L127.941 73.3119C126.47 73.4668 124.992 73.4954 123.506 73.3915V73.3535H123.006H123.006ZM93.6479 100.631L94.1479 100.681V101.131H102.365H102.865V101.128L156.852 101.134L157.465 101.134L157.342 100.534C155.44 91.2445 147.307 83.597 136.216 80.5109L135.582 80.3345V80.779L125.486 86.3707L115.417 80.7765V80.3345L114.783 80.5109C103.853 83.5526 95.7961 91.0238 93.7441 100.131H93.6479V100.631V100.631Z" fill="#96B9FF" stroke="#96B0E3"/>
<path d="M50.8357 218.465V218.864L51.2252 218.953C68.3821 222.839 80.1077 235.637 80.1077 250.491V254.037H18.152V254.02H17.652H15.9781H15.4781V254.037H1.39966V250.491C1.39966 235.637 13.1253 222.84 30.2809 218.953L30.6704 218.864V218.465V217.632V217.303L30.3687 217.173C22.1864 213.638 16.3887 206.054 15.1333 197.249L15.0904 196.948L14.8033 196.847C11.5447 195.709 9.24742 192.594 9.24742 189.039C9.24742 185.938 10.9869 183.16 13.6151 181.748L13.9977 181.542L13.8476 181.135C12.2356 176.757 11.8637 172.093 12.7743 167.574C13.9759 161.614 17.3772 156.25 22.3572 152.472L22.3573 152.471C27.1942 148.801 33.3173 146.775 39.5972 146.775C41.5879 146.775 43.5965 146.976 45.5656 147.374L45.5658 147.374C52.8919 148.851 59.251 152.889 63.4799 158.738C67.7771 164.682 69.3666 171.769 67.9698 178.699C67.7962 179.56 67.5721 180.423 67.2987 181.279L67.1755 181.664L67.5269 181.865C70.0547 183.31 71.6873 186.015 71.6873 189.038C71.6873 192.547 69.4233 195.651 66.2113 196.816L65.929 196.919L65.8868 197.216C64.665 205.816 59.0494 213.329 51.1277 216.954L50.8357 217.087V217.408V218.465ZM32.6046 163.434L34.3347 168.443L34.3347 168.443L34.3472 168.479C34.4922 168.9 34.6444 169.34 34.9668 169.73C35.3076 170.141 35.7987 170.453 36.5505 170.73C38.0243 171.274 40.7127 171.753 45.8671 172.458C51.3014 173.202 56.4827 175.145 60.439 176.991L61.0385 177.271L61.144 176.617C61.9137 171.854 60.7089 167.004 57.7346 162.892C54.548 158.483 49.7253 155.444 44.165 154.323C42.6539 154.018 41.1167 153.864 39.5973 153.864C29.8785 153.864 21.496 160.188 19.7246 168.974C19.4039 170.564 19.3036 172.166 19.4239 173.764L19.4966 174.729L20.2415 174.112C24.3195 170.734 27.8306 167.654 28.6172 166.962L28.6181 166.961L32.6046 163.434ZM21.9589 181.866V182.104L44.8379 179.977L44.9056 179.482C44.9056 179.482 44.9056 179.482 44.9056 179.482C41.1398 178.967 38.195 178.535 35.8424 177.92C33.4959 177.307 31.7832 176.522 30.461 175.329L30.1345 175.035L29.8006 175.321C27.7735 177.059 24.9745 179.426 22.1445 181.716L21.9589 181.866ZM38.2596 219.166L38.2376 219.666H37.7597V222.122V222.416L38.0168 222.559L40.5031 223.941L40.7455 224.076L40.9882 223.941L43.4896 222.556L43.7474 222.413V222.119V219.621V219.065L43.1949 219.124C41.7224 219.279 40.2465 219.308 38.7597 219.204V219.166H38.2597H38.2596ZM14.4862 246.947H14.9862V246.943H17.6192H18.1192V246.939L72.1056 246.947L72.7184 246.947L72.5956 246.346C70.6939 237.056 62.5607 229.409 51.4697 226.323L50.8357 226.147V226.591L40.7401 232.182L30.6705 226.589V226.147L30.0365 226.323C18.9463 229.409 10.8124 237.056 8.91067 246.346L8.78778 246.947H9.40051H14.4862Z" fill="#96B9FF" stroke="#96B0E3"/>
<path d="M202.098 163.434L203.829 168.442L203.829 168.443L203.841 168.478C203.986 168.899 204.138 169.34 204.46 169.729C204.801 170.14 205.292 170.453 206.044 170.73C207.517 171.274 210.206 171.753 215.36 172.458C215.36 172.458 215.36 172.458 215.36 172.458L202.098 163.434ZM202.098 163.434L198.103 166.968L198.102 166.969C197.313 167.665 193.792 170.751 189.734 174.112L188.989 174.729L188.917 173.764C188.797 172.166 188.897 170.564 189.218 168.974C190.989 160.188 199.371 153.864 209.09 153.864C210.609 153.864 212.147 154.018 213.658 154.323L202.098 163.434ZM220.329 218.465V218.864L220.718 218.953C237.875 222.839 249.6 235.637 249.6 250.491V254.037H187.646V254.03H187.146H185.471H184.971V254.037H170.892V250.491C170.892 235.637 182.618 222.84 199.774 218.953L200.164 218.864V218.465V217.632V217.303L199.862 217.173C191.68 213.639 185.883 206.055 184.627 197.249L184.584 196.948L184.297 196.847C181.038 195.709 178.741 192.594 178.741 189.039C178.741 185.938 180.48 183.16 183.108 181.748L183.491 181.542L183.341 181.135C181.729 176.756 181.357 172.093 182.268 167.574L182.268 167.574C183.47 161.614 186.871 156.25 191.851 152.472L191.851 152.471C196.688 148.801 202.811 146.775 209.09 146.775C211.082 146.775 213.09 146.976 215.059 147.374L215.059 147.374C222.385 148.851 228.745 152.889 232.972 158.738L232.972 158.738C237.271 164.682 238.86 171.769 237.462 178.699L237.462 178.7C237.289 179.561 237.065 180.423 236.792 181.279L236.67 181.664L237.021 181.865C239.548 183.309 241.18 186.015 241.18 189.038C241.18 192.547 238.917 195.651 235.704 196.816L235.422 196.919L235.38 197.216C234.158 205.816 228.543 213.329 220.621 216.954L220.329 217.087V217.408V218.465ZM191.638 181.716L190.539 182.604H191.452V193.627C191.452 203.855 199.773 212.176 210.002 212.176C220.231 212.176 228.551 203.855 228.551 193.627V184.512V184.201L228.273 184.064C224.634 182.258 219.576 180.19 214.399 179.482C210.633 178.967 207.688 178.535 205.335 177.92C202.989 177.307 201.276 176.522 199.954 175.329L199.628 175.034L199.294 175.321C197.271 177.055 194.476 179.419 191.638 181.716ZM207.797 219.168L207.253 219.12V219.666V222.122V222.416L207.51 222.559L209.996 223.941L210.239 224.076L210.481 223.941L212.982 222.556L213.24 222.413V222.119V219.621V219.065L212.687 219.124C211.065 219.294 209.436 219.312 207.797 219.168ZM178.394 246.443L178.894 246.494V246.943H187.112H187.612V246.939L241.599 246.947L242.212 246.947L242.089 246.346C240.187 237.056 232.055 229.409 220.963 226.323L220.329 226.147V226.591L210.233 232.182L200.164 226.589V226.147L199.53 226.323C188.599 229.364 180.543 236.836 178.49 245.943H178.394V246.443V246.443Z" fill="#96B9FF" stroke="#96B0E3"/>
</svg>
