<svg width="320" height="250" viewBox="0 0 320 250" fill="none" xmlns="http://www.w3.org/2000/svg">
<path d="M183.961 191.485L183.961 191.485C187.761 192.126 194.218 194.275 201.786 197.619C209.344 200.959 217.978 205.475 226.127 210.827C234.279 216.181 241.929 222.36 247.536 229.021C253.016 235.533 256.508 242.461 256.666 249.5H160H63.3452C63.5037 242.461 66.9954 235.533 72.4757 229.021C78.0822 222.36 85.7321 216.181 93.8844 210.827C102.034 205.475 110.667 200.959 118.225 197.619C125.794 194.275 132.25 192.126 136.051 191.485L136.051 191.485C137.497 191.24 138.503 190.024 139.208 188.562C139.922 187.081 140.396 185.21 140.713 183.4C141.031 181.584 141.197 179.797 141.283 178.468C141.326 177.802 141.35 177.249 141.362 176.862C141.365 176.781 141.367 176.708 141.369 176.642C141.371 176.55 141.373 176.473 141.374 176.412C141.375 176.36 141.376 176.32 141.376 176.292L141.377 176.261L141.377 176.253L141.377 176.25V176.25C141.377 176.25 141.377 176.25 141.365 176.249C141.335 176.249 141.233 176.248 140.884 176.245L141.377 176.249L141.379 176.047L141.238 175.9L141.238 175.9L141.237 175.898L141.23 175.891L141.201 175.86C141.175 175.833 141.137 175.791 141.086 175.736C140.984 175.625 140.833 175.46 140.639 175.241C140.252 174.804 139.695 174.156 139.015 173.315C137.655 171.634 135.808 169.185 133.866 166.119C129.98 159.984 125.724 151.401 124.205 141.574L124.139 141.151H123.711C121.874 141.151 120.137 139.977 118.671 137.946C117.211 135.924 116.079 133.126 115.451 130.075C114.824 127.027 114.707 123.76 115.248 120.812C115.79 117.861 116.982 115.266 118.941 113.507L119.117 113.349L119.106 113.113C119.076 112.426 118.973 111.407 118.842 110.119C118.214 103.92 116.954 91.4785 120.152 79.6779C122.078 72.5713 125.614 65.7432 131.855 60.6894C138.094 55.6384 147.085 52.3188 160 52.3188C172.917 52.3188 181.91 55.6384 188.149 60.6895C194.393 65.7432 197.93 72.5714 199.857 79.678C203.062 91.4968 201.793 103.959 201.163 110.148C201.033 111.422 200.931 112.43 200.9 113.112L200.889 113.349L201.065 113.507C203.025 115.266 204.219 117.861 204.761 120.812C205.303 123.76 205.186 127.027 204.559 130.075C203.932 133.126 202.8 135.924 201.34 137.946C199.874 139.977 198.138 141.151 196.301 141.151H195.872L195.807 141.574C194.287 151.401 190.032 159.984 186.145 166.119C184.203 169.185 182.356 171.634 180.996 173.315C180.317 174.155 179.759 174.804 179.372 175.241C179.178 175.46 179.027 175.625 178.926 175.736C178.875 175.791 178.836 175.833 178.81 175.86L178.781 175.891L178.775 175.898L178.773 175.9L178.773 175.9L178.633 176.046L178.634 176.249L179.134 176.245C178.634 176.249 178.634 176.249 178.634 176.25L178.634 176.25L178.634 176.252L178.634 176.261L178.635 176.292C178.635 176.319 178.636 176.359 178.637 176.412C178.639 176.516 178.642 176.668 178.649 176.862C178.661 177.249 178.684 177.802 178.727 178.467C178.813 179.797 178.978 181.584 179.296 183.4C179.613 185.21 180.086 187.081 180.801 188.562C181.506 190.024 182.513 191.24 183.961 191.485Z" fill="#96B9FF" stroke="#96B0E3"/>
<path d="M86.781 195.279L86.7782 195.281C85.5735 196.083 84.405 196.874 83.2473 197.681H0.505632C0.664099 190.639 4.15587 183.708 9.63629 177.195C15.2429 170.533 22.8929 164.353 31.0455 158.999C39.1953 153.647 47.8293 149.131 55.3882 145.793C62.9572 142.451 69.4146 140.303 73.2163 139.665L73.2177 139.665C74.6625 139.418 75.6669 138.201 76.3708 136.738C77.0843 135.255 77.5572 133.384 77.8739 131.572C78.1917 129.755 78.3573 127.968 78.4435 126.637C78.4867 125.971 78.5101 125.418 78.5228 125.031C78.5291 124.837 78.5327 124.685 78.5348 124.58C78.5358 124.528 78.5364 124.488 78.5368 124.461L78.5372 124.429L78.5373 124.421L78.5373 124.419V124.418C78.5373 124.418 78.5373 124.418 78.4985 124.418C78.4463 124.417 78.324 124.416 78.0373 124.414L78.5373 124.418L78.5389 124.215L78.399 124.069L78.3987 124.068L78.3972 124.067L78.3903 124.059L78.3615 124.029C78.3358 124.002 78.2971 123.96 78.2462 123.905C78.1444 123.794 77.9938 123.628 77.8005 123.41C77.4138 122.973 76.8563 122.324 76.1769 121.484C74.818 119.803 72.9728 117.354 71.0318 114.289C67.1471 108.155 62.8931 99.5756 61.371 89.7549L61.3053 89.3315H60.8769C59.0402 89.3315 57.3032 88.1572 55.8371 86.1254C54.3771 84.1021 53.2453 81.3028 52.6176 78.2516C51.9904 75.2029 51.8734 71.9356 52.4144 68.9876C52.9558 66.0371 54.1485 63.444 56.1066 61.6881L56.2828 61.53L56.2722 61.2935C56.2416 60.6087 56.1386 59.5948 56.0084 58.313C55.379 52.1187 54.1139 39.6679 57.3147 27.8591C59.241 20.7525 62.7778 13.9244 69.0208 8.87061C75.2604 3.8196 84.2539 0.5 97.1719 0.5C113.161 0.5 123.142 5.58438 129.333 12.7677C135.448 19.8623 137.926 29.0724 138.757 37.6615C129.942 40.724 122.574 45.749 116.714 52.7052L116.714 52.7054C101.475 70.807 102.224 95.5586 103.311 108.192C101.509 111.832 100.331 115.973 99.8788 120.408C99.2304 126.64 100.018 133.383 102.071 139.425L102.072 139.426C104.119 145.384 107.304 150.285 111.22 153.74C113.946 163.206 118.215 171.254 122.113 177.24C111.078 181.369 97.7789 188.064 86.781 195.279Z" fill="#96B9FF" stroke="#96B0E3"/>
<path d="M233.219 195.279C222.232 188.063 208.922 181.369 197.886 177.24C201.779 171.254 206.054 163.207 208.786 153.74C212.707 150.285 215.88 145.384 217.934 139.427L217.934 139.425C219.988 133.384 220.781 126.641 220.127 120.408C219.674 115.973 218.502 111.832 216.695 108.191C217.776 95.5583 218.524 70.8069 203.287 52.7054C197.437 45.7488 190.069 40.7238 181.243 37.6614C182.074 29.0723 184.553 19.8624 190.67 12.7677C196.863 5.58439 206.845 0.5 222.834 0.5C235.752 0.5 244.745 3.8196 250.985 8.87061C257.228 13.9244 260.765 20.7525 262.692 27.8591C265.891 39.6597 264.631 52.101 264.003 58.3C263.872 59.5881 263.769 60.6066 263.739 61.2939L263.729 61.5302L263.905 61.6881C265.863 63.444 267.056 66.0371 267.597 68.9876C268.138 71.9356 268.021 75.2029 267.394 78.2516C266.766 81.3028 265.634 84.1021 264.174 86.1253C262.708 88.1572 260.971 89.3315 259.134 89.3315H258.706L258.64 89.7549C257.118 99.5755 252.863 108.155 248.977 114.289C247.035 117.354 245.189 119.803 243.83 121.484C243.15 122.324 242.592 122.972 242.206 123.41C242.012 123.628 241.861 123.794 241.76 123.905C241.709 123.96 241.67 124.001 241.644 124.029L241.616 124.059L241.609 124.067L241.607 124.068L241.607 124.069L241.467 124.215L241.468 124.418L241.968 124.414C241.468 124.418 241.468 124.418 241.468 124.418L241.468 124.419L241.468 124.421L241.469 124.429L241.469 124.461L241.469 124.488C241.47 124.512 241.47 124.543 241.471 124.58C241.473 124.685 241.477 124.837 241.483 125.031C241.496 125.418 241.519 125.971 241.562 126.637C241.648 127.968 241.813 129.755 242.13 131.572C242.446 133.383 242.918 135.255 243.63 136.738C244.332 138.2 245.334 139.418 246.776 139.665L246.778 139.665C250.581 140.303 257.04 142.451 264.609 145.793C272.169 149.131 280.804 153.647 288.954 158.999C297.107 164.353 304.757 170.533 310.364 177.195C315.844 183.708 319.336 190.639 319.494 197.681H236.759C235.605 196.873 234.425 196.082 233.222 195.281L233.219 195.279Z" fill="#96B9FF" stroke="#96B0E3"/>
</svg>
