<svg width="90" height="90" viewBox="0 0 90 90" fill="none" xmlns="http://www.w3.org/2000/svg">
<path d="M9.48011 23.4593C8.68799 23.8813 8.42589 24.802 8.89556 25.5146C9.20651 25.987 9.76171 26.2499 10.3316 26.2499C10.6207 26.2499 10.913 26.1826 11.1799 26.0405L23.5079 19.4707L35.6583 25.7819C36.4552 26.195 37.4744 25.9489 37.9361 25.2326C38.3961 24.5149 38.1233 23.5978 37.3255 23.1833L24.3308 16.4333C23.809 16.1615 23.1659 16.1659 22.6474 16.442L9.48011 23.4593Z" fill="#05095B"/>
<path d="M89.1664 18.9507L68.1949 8.0574C68.2879 7.6338 68.3418 7.19775 68.3418 6.75C68.3418 3.0279 64.9762 0 60.8391 0C56.7019 0 53.3364 3.0279 53.3364 6.75C53.3364 10.4721 56.7019 13.5 60.8391 13.5C63.281 13.5 65.4328 12.4292 66.8037 10.7994L86.6655 21.1157V41.8843L66.6745 52.2678L46.6836 41.8843V20.25C46.6836 19.7318 46.3733 19.2975 45.9292 19.028C45.8903 19.0037 45.8588 18.9723 45.8173 18.9507L45.7081 18.8938C45.6888 18.886 45.6737 18.8733 45.6541 18.8659L24.1591 7.7007C23.6429 7.43265 23.008 7.43265 22.4918 7.7007L0.833636 18.9507C0.317449 19.2187 0 19.7139 0 20.25V42.75C0 43.2861 0.317449 43.7812 0.833636 44.0493L21.6745 54.875V77.25C21.6745 77.7861 21.992 78.2812 22.5082 78.5493L44.1664 89.7993C44.4245 89.9334 44.7117 90 45 90C45.2883 90 45.5755 89.9334 45.8336 89.7993L65.9698 79.34C67.2844 80.3603 68.9742 81 70.8427 81C74.9799 81 78.3454 77.9721 78.3454 74.25C78.3454 70.5279 74.9799 67.5 70.8427 67.5C66.7055 67.5 63.34 70.5279 63.34 74.25C63.34 75.1989 63.5634 76.1003 63.9579 76.9204L45 86.7678L25.0091 76.3844V54.8578L45 44.4738L65.8409 55.2993C66.099 55.4334 66.3863 55.5 66.6745 55.5C66.9628 55.5 67.2501 55.4334 67.5082 55.2993L89.1664 44.0493C89.6826 43.7812 90 43.2861 90 42.75V20.25C90 19.7139 89.6826 19.2187 89.1664 18.9507ZM60.8391 10.5C58.5409 10.5 56.6709 8.8176 56.6709 6.75C56.6709 4.6824 58.5409 3 60.8391 3C63.1373 3 65.0073 4.6824 65.0073 6.75C65.0073 8.8176 63.1373 10.5 60.8391 10.5ZM70.8427 70.5C73.1409 70.5 75.0109 72.1824 75.0109 74.25C75.0109 76.3176 73.1409 78 70.8427 78C69.8825 78 69.0082 77.6946 68.3028 77.2019C68.2946 76.9622 68.2449 76.7223 68.1024 76.5C67.866 76.1327 67.4817 75.8936 67.057 75.7983C66.8167 75.3251 66.6745 74.8035 66.6745 74.25C66.6745 72.1824 68.5445 70.5 70.8427 70.5ZM43.3164 41.8843L23.3255 52.2678L3.33454 41.8843V21.1157L23.3255 10.7322L43.3164 21.1157V41.8843Z" fill="#05095B"/>
</svg>
